Coordinates
version=1
nRows=15
nColumns=34
inDegrees=no

Units are S.I. units (second, meters, Newtons, ...)
If the header above contains a line with 'inDegrees', this indicates whether rotational values are in degrees (yes) or radians (no).

endheader
time	pelvis_tilt	pelvis_list	pelvis_rotation	pelvis_tx	pelvis_ty	pelvis_tz	hip_flexion_r	hip_adduction_r	hip_rotation_r	knee_angle_r	ankle_angle_r	subtalar_angle_r	mtp_angle_r	hip_flexion_l	hip_adduction_l	hip_rotation_l	knee_angle_l	ankle_angle_l	subtalar_angle_l	mtp_angle_l	lumbar_extension	lumbar_bending	lumbar_rotation	arm_flex_r	arm_add_r	arm_rot_r	elbow_flex_r	pro_sup_r	arm_flex_l	arm_add_l	arm_rot_l	elbow_flex_l	pro_sup_l
0.44	0.0434689	-0.0762475	-0.155063	0.386846	0.949337	-0.225607	-0.15085	0.0838311	-0.278046	0.233215	0.535176	0.420283	-0.0151456	0.432943	-0.118438	-0.183477	0.179262	0.0510857	0.000615583	-0.0174718	-0.185881	0.0938717	0.0822668	0.25296	-0.235102	0.0930835	0.816451	1.96793	-0.297852	-0.0889228	-0.262453	0.46441	1.7689
0.45	0.0456089	-0.0771999	-0.159929	0.398929	0.947265	-0.225469	-0.166237	0.0782362	-0.289324	0.238523	0.549523	0.441968	-0.0151459	0.424146	-0.115316	-0.185329	0.136902	0.0632417	0.0133473	-0.017459	-0.190351	0.0948693	0.0847224	0.26393	-0.236491	0.0985072	0.821794	1.96853	-0.305054	-0.0870356	-0.267866	0.462757	1.76206
0.46	0.0475	-0.0775349	-0.164226	0.411152	0.945176	-0.225385	-0.180803	0.0720813	-0.2986	0.244703	0.562302	0.45942	-0.0151462	0.416947	-0.111797	-0.186298	0.103148	0.0742381	0.0197231	-0.0174462	-0.194127	0.095085	0.0867527	0.273256	-0.237296	0.102589	0.82681	1.96931	-0.310876	-0.0856944	-0.272204	0.459949	1.75612
0.47	0.0490992	-0.0770997	-0.16794	0.423523	0.943094	-0.225334	-0.194568	0.0654203	-0.305151	0.251488	0.573149	0.47177	-0.0151465	0.411687	-0.107913	-0.187057	0.0787946	0.0830965	0.0198957	-0.0174333	-0.197101	0.0942744	0.0883629	0.280731	-0.237446	0.105239	0.831561	1.9701	-0.315296	-0.0850248	-0.275641	0.45605	1.75104
0.48	0.0503842	-0.0757651	-0.171046	0.436054	0.941042	-0.2253	-0.207603	0.0583155	-0.308441	0.258583	0.581739	0.478383	-0.0151469	0.40856	-0.103636	-0.18811	0.0641881	0.0888314	0.0142387	-0.0174205	-0.199189	0.0922284	0.0895323	0.286177	-0.236894	0.106426	0.8361	1.97081	-0.318335	-0.0851189	-0.278349	0.451172	1.74675
0.49	0.0513449	-0.0734333	-0.173499	0.448759	0.939037	-0.225271	-0.22	0.0508247	-0.308193	0.265718	0.587808	0.47893	-0.0151472	0.407601	-0.098879	-0.189714	0.0591776	0.0905239	0.00325505	-0.0174077	-0.200321	0.0887929	0.090211	0.289448	-0.235627	0.106186	0.840458	1.97139	-0.320059	-0.0860261	-0.280487	0.445476	1.74316
0.5	0.0519736	-0.0700435	-0.175238	0.461654	0.937093	-0.225248	-0.231836	0.0429889	-0.304426	0.272712	0.591162	0.473411	-0.0151475	0.40871	-0.0935159	-0.191862	0.063127	0.0874333	-0.0124702	-0.0173948	-0.20044	0.0838823	0.0903244	0.290443	-0.233667	0.104628	0.844639	1.97182	-0.320569	-0.0877486	-0.282193	0.439169	1.74022
0.51	0.0522708	-0.0655666	-0.176188	0.474758	0.935248	-0.225246	-0.243137	0.0348319	-0.297444	0.27952	0.591668	0.462122	-0.0151479	0.411675	-0.0874099	-0.194334	0.0749971	0.0791402	-0.0322664	-0.017382	-0.199494	0.0774925	0.0897878	0.2891	-0.231076	0.101919	0.848624	1.9721	-0.319992	-0.0902424	-0.283572	0.432501	1.73785
0.52	0.0522262	-0.0600256	-0.176277	0.488085	0.933523	-0.225278	-0.253863	0.0263633	-0.287765	0.286266	0.589228	0.445575	-0.0151482	0.416215	-0.0804398	-0.196789	0.0934851	0.0656945	-0.0553453	-0.0173691	-0.197449	0.0696931	0.0885216	0.285395	-0.227946	0.0982656	0.852376	1.9722	-0.318466	-0.0934234	-0.284694	0.425746	1.73601
0.53	0.0518272	-0.0534887	-0.175444	0.501643	0.93194	-0.225364	-0.263886	0.0175909	-0.276027	0.293261	0.583729	0.424374	-0.0151485	0.422014	-0.0725294	-0.198868	0.117184	0.0477258	-0.0807749	-0.0173563	-0.194296	0.0606221	0.0864699	0.279343	-0.22439	0.0938856	0.855843	1.9721	-0.316124	-0.0971773	-0.285586	0.419191	1.73466
0.54	0.0510672	-0.0460654	-0.173649	0.515436	0.930518	-0.225522	-0.272983	0.00853038	-0.262873	0.301001	0.574986	0.399094	-0.0151489	0.428741	-0.0636624	-0.200268	0.14473	0.0264716	-0.107491	-0.0173434	-0.190064	0.05047	0.0836144	0.270993	-0.220527	0.088983	0.858971	1.97177	-0.313079	-0.101372	-0.286228	0.413114	1.73374
0.55	0.0499557	-0.0378971	-0.170888	0.529455	0.929279	-0.22577	-0.280844	-0.000790361	-0.248856	0.310158	0.562686	0.37018	-0.0151492	0.436057	-0.0538819	-0.20078	0.174898	0.00369009	-0.134368	-0.0173306	-0.184833	0.0394582	0.0799795	0.260426	-0.216467	0.0837255	0.861708	1.97117	-0.309419	-0.105869	-0.286554	0.407765	1.73322
0.56	0.0485274	-0.0291423	-0.167189	0.543685	0.928244	-0.226123	-0.287073	-0.0103368	-0.234386	0.321555	0.54635	0.337902	-0.0151496	0.443601	-0.0432735	-0.20029	0.206648	-0.0185362	-0.160314	-0.0173177	-0.178743	0.0278149	0.0756273	0.247765	-0.212302	0.0782362	0.864005	1.97033	-0.305195	-0.110535	-0.28645	0.403361	1.73303
0.57	0.046846	-0.0199591	-0.162617	0.5581	0.927437	-0.226589	-0.291204	-0.0200825	-0.219721	0.336122	0.525315	0.30238	-0.0151499	0.450981	-0.0319387	-0.198767	0.239099	-0.0380769	-0.184381	-0.0173049	-0.17199	0.015752	0.0706427	0.233181	-0.208095	0.072596	0.865807	1.96932	-0.30043	-0.115252	-0.285767	0.40008	1.73313
0.58	0.0449999	-0.0104873	-0.15726	0.572664	0.926875	-0.227176	-0.292715	-0.0300266	-0.205003	0.354847	0.498759	0.263663	-0.0151503	0.457767	-0.019967	-0.196249	0.271482	-0.0530513	-0.205828	-0.017292	-0.164816	0.00344745	0.0651124	0.216897	-0.203884	0.0668589	0.86705	1.96832	-0.29512	-0.119915	-0.28434	0.398071	1.73349
